# xmcd
#
# Track frame offsets: 
#        150
#        13777
#        34975
#        55907
#        79958
#        96125
#        113354
#        130658
#        152082
#        165869
#        180933
#        194523
#        210880
#        230862
#        249589
#        264894
#        282863
#        300525
#
# Disc length: 4209 seconds
#
# Revision: 0
# Processed by: cddbd v1.5.2PL0 Copyright (c) Steve Scherf et al.
# Submitted via: ExactAudioCopy v0.95b4
#
DISCID=e0106f12
DTITLE=Various Artist - Siempre Te Amare Vol.10
DYEAR=2000
DGENRE=Ballad
TTITLE0=Diego Verdaguer - La ladrona
TTITLE1=Ritchie - Mi niña veneno
TTITLE2=Orlando Netti - Clásico es amarte
TTITLE3=Cadillac - Perdí mi oportunidad
TTITLE4=Gonzalo - Quien piensa en ti
TTITLE5=Luis Angel - Amar a muerte
TTITLE6=Oscar Athie - Fotografía
TTITLE7=Fausto - Susana
TTITLE8=Joan Sebastian - 25 Rosas
TTITLE9=Sabú - Quizas si quizas no
TTITLE10=Fernando Ubiergo - Yo pienso en ti
TTITLE11=Pecos Kambas - Tan dentro de mi alma
TTITLE12=Jorge Rigo - Sola
TTITLE13=Emilio José - Soledad
TTITLE14=Bruno Lomas - Rogaré
TTITLE15=Bachelli - Culpable
TTITLE16=Basilio - Como tu
TTITLE17=Massimo Ranieri - Rosas rojas
EXTD=
EXTT0=
EXTT1=
EXTT2=
EXTT3=
EXTT4=
EXTT5=
EXTT6=
EXTT7=
EXTT8=
EXTT9=
EXTT10=
EXTT11=
EXTT12=
EXTT13=
EXTT14=
EXTT15=
EXTT16=
EXTT17=
PLAYORDER=
